<?xml version="1.0" encoding="UTF-8"?>
<svg id="Layer_2" data-name="Layer 2" xmlns="http://www.w3.org/2000/svg" viewBox="0 0 333.69 415.1">
  <defs>
    <style>
      .cls-1 {
        fill: #000;
        stroke-width: 0px;
      }
    </style>
  </defs>
  <g id="Layer_1-2" data-name="Layer 1">
    <g>
      <path class="cls-1" d="M.09,246.36c3.34,1.21,5.82,2.06,8.26,3.01,29.49,11.41,58.96,22.89,88.5,34.18,3.43,1.31,4.8,2.76,4.75,6.72-.42,34,26.09,63.16,59.46,65.73,34.79,2.69,65.53-21.53,70.5-55.63.5-3.45.72-6.99.56-10.46-.14-2.98.66-4.43,3.67-5.37,31.29-9.81,62.53-19.78,93.78-29.69,1.06-.34,2.18-.47,4.04-.87v5.76c0,36.49.05,72.97-.02,109.46-.05,27.02-18.97,45.86-46.02,45.87-80.47.03-160.94.03-241.4,0-27.07,0-46.01-18.83-46.06-45.83-.07-39.15-.02-78.3-.02-117.45,0-1.48,0-2.96,0-5.44Z"/>
      <path class="cls-1" d="M231.19,276.35c-10.16-31.39-30.6-50.52-63.82-50.71-33.65-.19-54.44,18.94-64.75,50.62-1.61-.54-3.16-1-4.66-1.58-31.06-12-62.09-24.09-93.21-35.95-3.55-1.35-4.88-3.05-4.74-6.84.41-10.98-.3-22.05.79-32.95,2.11-21.16,20.95-37.64,42.33-37.82,16.83-.14,33.66-.03,50.5-.04,1.81,0,3.62,0,6.1,0,.66-8.42,1.33-16.49,1.9-24.56.47-6.65.81-13.3,1.21-19.95.49-8.1,5.41-13.24,13.48-14.06,1.16-.12,2.33-.12,3.5-.12,31.33,0,62.66.01,93.99-.02,5.37,0,10.66.67,13.78,5.44,1.81,2.77,2.89,6.37,3.19,9.7,1.21,13.44,1.99,26.91,2.95,40.37.06.82.26,1.63.47,2.97,1.76.08,3.53.23,5.31.23,16.5.02,33-.01,49.5.02,24.74.06,43.88,18.5,44.54,43.23.32,11.99,0,24,.11,36,.03,2.74-.78,4.15-3.55,5.02-32.08,10.11-64.11,20.34-96.17,30.52-.78.25-1.61.3-2.75.49ZM212.05,160.76c-.45-8.44-.86-16.54-1.3-24.63-.28-5.13-.8-5.67-5.95-5.68-11.82-.03-23.64,0-35.46,0-13.65,0-27.3,0-40.95-.01-2.44,0-5,.04-5.22,3.23-.61,8.91-1.03,17.83-1.54,27.09h90.42Z"/>
      <path class="cls-1" d="M16.65,53.85c11.56-10.15,23.11-20.3,35.05-30.79,11.92,10.47,23.57,20.7,35.22,30.93-.15.37-.29.74-.44,1.11-3.43,0-6.87-.03-10.3,0-5.5.06-5.57.1-5.58,5.61-.02,26.3-.01,52.6-.01,78.91q0,10.53-10.57,10.53c-7.16,0-14.32.03-21.47-.01-5.54-.03-5.59-.07-5.6-5.57-.02-27.47,0-54.94-.01-82.4q0-7.11-7.19-7.08c-2.82,0-5.64,0-8.45,0l-.65-1.24Z"/>
      <path class="cls-1" d="M282,23.05c11.34,9.95,22.09,19.39,32.83,28.84.73.65,1.36,1.41,3.05,3.19-4.48,0-7.85,0-11.22,0-5.73.02-5.89.13-5.89,5.88-.02,27.47,0,54.94-.01,82.4q0,6.77-6.9,6.79c-8.49,0-16.98.03-25.47-.01-5.22-.03-5.27-.08-5.27-5.31-.02-27.63,0-55.27-.01-82.9,0-6.8-.02-6.8-6.88-6.82-2.97,0-5.95,0-8.92,0-.19-.34-.38-.68-.57-1.03,11.62-10.22,23.24-20.44,35.26-31.02Z"/>
      <path class="cls-1" d="M89.48,30.33c11.61-10.22,22.68-20.03,33.88-29.68.8-.69,3.09-.9,3.8-.29,11.32,9.73,22.5,19.62,33.47,30.51-2.9,0-5.79,0-8.69,0q-7.47,0-7.49,7.68c-.01,14.65,0,29.29,0,43.94q0,6.31-6.31,6.33c-8.65.01-17.31.03-25.96,0-5.27-.02-5.36-.09-5.37-5.27-.02-15.31,0-30.62-.01-45.93,0-6.68-.04-6.68-6.51-6.71-3-.01-5.99-.02-8.99-.06-.31,0-.61-.17-1.81-.51Z"/>
      <path class="cls-1" d="M172.46,30.19c10.19-8.97,19.87-17.57,29.64-26.07,6.17-5.36,6.25-5.3,12.55.19,9.02,7.88,18,15.81,27.02,23.7.73.64,1.57,1.14,2.35,1.71-.18.38-.35.76-.53,1.14h-16.03c-.21,2.67-.52,4.78-.53,6.89-.04,15.31-.11,30.62.04,45.93.04,3.8-1.02,5.34-5.08,5.22-9.15-.26-18.3-.06-27.46-.1-5.09-.02-5.16-.1-5.16-5.46-.02-15.48.01-30.96-.03-46.43-.01-6-.07-6-6.12-6.04-2.99-.02-5.99-.04-8.98-.08-.29,0-.58-.2-1.69-.61Z"/>
      <path class="cls-1" d="M160.28,247.47h12.64c.35.49.71.78.69,1.02-.61,5.67,1.39,8.59,7.4,10.29,8.24,2.33,12.66,9.9,12.59,19.11-4.01.16-8.08.51-12.13.34-.97-.04-2.19-1.67-2.75-2.83-3.6-7.53-16.8-9.94-22.74-4.07-2.86,2.82-2.53,6.63,1.34,8.71,3.32,1.79,7.1,2.78,10.73,3.93,4.6,1.46,9.36,2.44,13.87,4.12,10,3.74,14.45,10.64,14.11,21.13-.31,9.32-6.21,16.76-15.68,19.7-1.9.59-3.86,1.01-6.2,1.62-.18,2.68-.37,5.42-.58,8.48h-13.41c-.19-2.9-.36-5.66-.56-8.76-12.99-2.59-20.29-10.44-21.88-24.33,4.72-.47,9.1-.9,13.62-1.35.44,1.03.86,1.74,1.06,2.52,2.72,10.7,12.58,12.72,21.54,10.2,4.6-1.3,7.71-5.09,7.59-8.87-.15-4.71-3.57-6.49-7.4-7.64-6.05-1.82-12.21-3.32-18.23-5.24-7.56-2.41-13.36-6.82-15.21-15.04-2.21-9.85,2.91-19.24,12.99-22.28,4.82-1.45,7.2-3.34,6.21-8.45-.11-.59.2-1.26.39-2.33Z"/>
    </g>
  </g>
</svg>